<svg width="92" height="56" viewBox="0 0 92 56" fill="none" xmlns="http://www.w3.org/2000/svg">
<rect x="0.5" y="0.5" width="91" height="55" rx="4.5" stroke="#8A38F5" stroke-dasharray="10 5"/>
<g clip-path="url(#clip0_888_1800)">
<g filter="url(#filter0_d_888_1800)">
<path fill-rule="evenodd" clip-rule="evenodd" d="M27.9952 23.6636C26.6 21.9422 24.2618 21.3704 22.5083 22.8442C20.7547 24.318 20.5079 26.7821 21.8849 28.5252C23.0299 29.9744 26.4841 32.8087 27.6197 33.798C27.7468 33.9087 27.8103 33.964 27.8844 33.9857C27.9491 34.0048 28.0198 34.0048 28.0845 33.9857C28.1586 33.964 28.2221 33.9087 28.3492 33.798C29.4848 32.8087 32.9606 29.9744 34.1055 28.5252C35.4825 26.7821 35.2658 24.3025 33.4821 22.8442C31.6985 21.3859 29.4 21.9422 27.9952 23.6636Z" stroke="white" stroke-linecap="round" stroke-linejoin="round" shape-rendering="crispEdges"/>
</g>
</g>
<path fill-rule="evenodd" clip-rule="evenodd" d="M63.9952 23.6636C62.6 21.9422 60.2618 21.3704 58.5083 22.8442C56.7547 24.318 56.5079 26.7821 57.8849 28.5252C59.0299 29.9744 62.4841 32.8087 63.6197 33.798C63.7468 33.9087 63.8103 33.964 63.8844 33.9857C63.9491 34.0048 64.0198 34.0048 64.0845 33.9857C64.1586 33.964 64.2221 33.9087 64.3492 33.798C65.4848 32.8087 68.9606 29.9744 70.1055 28.5252C71.4825 26.7821 71.2658 24.3025 69.4821 22.8442C67.6985 21.3859 65.4 21.9422 63.9952 23.6636Z" fill="#E4541B"/>
<defs>
<filter id="filter0_d_888_1800" x="19.5" y="20.498" width="17" height="15.002" filterUnits="userSpaceOnUse" color-interpolation-filters="sRGB">
<feFlood flood-opacity="0" result="BackgroundImageFix"/>
<feColorMatrix in="SourceAlpha" type="matrix" values="0 0 0 0 0 0 0 0 0 0 0 0 0 0 0 0 0 0 127 0" result="hardAlpha"/>
<feOffset/>
<feGaussianBlur stdDeviation="0.5"/>
<feComposite in2="hardAlpha" operator="out"/>
<feColorMatrix type="matrix" values="0 0 0 0 0 0 0 0 0 0 0 0 0 0 0 0 0 0 0.5 0"/>
<feBlend mode="normal" in2="BackgroundImageFix" result="effect1_dropShadow_888_1800"/>
<feBlend mode="normal" in="SourceGraphic" in2="effect1_dropShadow_888_1800" result="shape"/>
</filter>
<clipPath id="clip0_888_1800">
<rect width="16" height="16" fill="white" transform="translate(20 20)"/>
</clipPath>
</defs>
</svg>
